<mxfile host="Electron" agent="Mozilla/5.0 (Macintosh; Intel Mac OS X 10_15_7) AppleWebKit/537.36 (KHTML, like Gecko) draw.io/27.0.5 Chrome/134.0.6998.205 Electron/35.3.0 Safari/537.36" version="27.0.5" pages="2">
  <diagram name="EDA" id="bEM5FdG_0KYIYhTPtIja">
    <mxGraphModel dx="1489" dy="1105" grid="1" gridSize="10" guides="1" tooltips="1" connect="1" arrows="1" fold="1" page="1" pageScale="1" pageWidth="850" pageHeight="1100" math="0" shadow="0">
      <root>
        <mxCell id="0" />
        <mxCell id="1" parent="0" />
        <mxCell id="nUJ4KrY5SfV61IZJ1-Id-5" style="edgeStyle=orthogonalEdgeStyle;rounded=0;orthogonalLoop=1;jettySize=auto;html=1;entryX=0;entryY=0;entryDx=0;entryDy=0;shadow=1;fontFamily=Inter;" edge="1" parent="1" source="nUJ4KrY5SfV61IZJ1-Id-1" target="nUJ4KrY5SfV61IZJ1-Id-4">
          <mxGeometry relative="1" as="geometry">
            <Array as="points">
              <mxPoint x="382.5" y="140" />
              <mxPoint x="382.5" y="240" />
              <mxPoint x="467.5" y="240" />
            </Array>
          </mxGeometry>
        </mxCell>
        <mxCell id="nUJ4KrY5SfV61IZJ1-Id-8" style="edgeStyle=orthogonalEdgeStyle;rounded=0;orthogonalLoop=1;jettySize=auto;html=1;fontFamily=Inter;" edge="1" parent="1" source="nUJ4KrY5SfV61IZJ1-Id-1" target="nUJ4KrY5SfV61IZJ1-Id-3">
          <mxGeometry relative="1" as="geometry" />
        </mxCell>
        <mxCell id="nUJ4KrY5SfV61IZJ1-Id-1" value="Service A" style="rounded=1;whiteSpace=wrap;html=1;fillColor=#cce5ff;strokeColor=#36393d;shadow=1;fontFamily=Inter;" vertex="1" parent="1">
          <mxGeometry x="232.5" y="110" width="120" height="60" as="geometry" />
        </mxCell>
        <mxCell id="nUJ4KrY5SfV61IZJ1-Id-6" style="edgeStyle=orthogonalEdgeStyle;rounded=0;orthogonalLoop=1;jettySize=auto;html=1;entryX=0.5;entryY=0;entryDx=0;entryDy=0;shadow=1;fontFamily=Inter;" edge="1" parent="1" source="nUJ4KrY5SfV61IZJ1-Id-2" target="nUJ4KrY5SfV61IZJ1-Id-1">
          <mxGeometry relative="1" as="geometry">
            <Array as="points">
              <mxPoint x="292.5" y="90" />
            </Array>
          </mxGeometry>
        </mxCell>
        <mxCell id="nUJ4KrY5SfV61IZJ1-Id-2" value="Service B" style="rounded=1;whiteSpace=wrap;html=1;fillColor=#cdeb8b;strokeColor=#36393d;shadow=1;fontFamily=Inter;" vertex="1" parent="1">
          <mxGeometry x="452.5" y="100" width="120" height="60" as="geometry" />
        </mxCell>
        <mxCell id="nUJ4KrY5SfV61IZJ1-Id-7" style="edgeStyle=orthogonalEdgeStyle;rounded=0;orthogonalLoop=1;jettySize=auto;html=1;shadow=1;fontFamily=Inter;" edge="1" parent="1" source="nUJ4KrY5SfV61IZJ1-Id-3" target="nUJ4KrY5SfV61IZJ1-Id-4">
          <mxGeometry relative="1" as="geometry" />
        </mxCell>
        <mxCell id="nUJ4KrY5SfV61IZJ1-Id-9" style="edgeStyle=orthogonalEdgeStyle;rounded=0;orthogonalLoop=1;jettySize=auto;html=1;shadow=1;fontFamily=Inter;" edge="1" parent="1" source="nUJ4KrY5SfV61IZJ1-Id-3" target="nUJ4KrY5SfV61IZJ1-Id-1">
          <mxGeometry relative="1" as="geometry" />
        </mxCell>
        <mxCell id="nUJ4KrY5SfV61IZJ1-Id-3" value="Service C" style="rounded=1;whiteSpace=wrap;html=1;fillColor=#ffcccc;strokeColor=#36393d;shadow=1;fontFamily=Inter;" vertex="1" parent="1">
          <mxGeometry x="242.5" y="270" width="120" height="60" as="geometry" />
        </mxCell>
        <mxCell id="nUJ4KrY5SfV61IZJ1-Id-10" style="edgeStyle=orthogonalEdgeStyle;rounded=0;orthogonalLoop=1;jettySize=auto;html=1;entryX=1;entryY=0.25;entryDx=0;entryDy=0;shadow=1;fontFamily=Inter;" edge="1" parent="1" source="nUJ4KrY5SfV61IZJ1-Id-4" target="nUJ4KrY5SfV61IZJ1-Id-1">
          <mxGeometry relative="1" as="geometry">
            <Array as="points">
              <mxPoint x="522.5" y="220" />
              <mxPoint x="392.5" y="220" />
              <mxPoint x="392.5" y="125" />
            </Array>
          </mxGeometry>
        </mxCell>
        <mxCell id="nUJ4KrY5SfV61IZJ1-Id-4" value="Service D" style="rounded=1;whiteSpace=wrap;html=1;fillColor=#ffcc99;strokeColor=#36393d;shadow=1;fontFamily=Inter;" vertex="1" parent="1">
          <mxGeometry x="467.5" y="270" width="120" height="60" as="geometry" />
        </mxCell>
        <mxCell id="nUJ4KrY5SfV61IZJ1-Id-11" value="&quot;Traditional&quot; Microservices" style="text;html=1;align=center;verticalAlign=middle;resizable=0;points=[];autosize=1;strokeColor=none;fillColor=none;fontFamily=Inter;fontSize=14;fontStyle=1" vertex="1" parent="1">
          <mxGeometry x="302.5" y="40" width="200" height="30" as="geometry" />
        </mxCell>
        <mxCell id="nUJ4KrY5SfV61IZJ1-Id-18" style="edgeStyle=orthogonalEdgeStyle;rounded=0;orthogonalLoop=1;jettySize=auto;html=1;entryX=0.25;entryY=0;entryDx=0;entryDy=0;" edge="1" parent="1" source="nUJ4KrY5SfV61IZJ1-Id-13" target="nUJ4KrY5SfV61IZJ1-Id-17">
          <mxGeometry relative="1" as="geometry" />
        </mxCell>
        <mxCell id="nUJ4KrY5SfV61IZJ1-Id-23" value="&amp;nbsp;Push&amp;nbsp;" style="edgeLabel;html=1;align=center;verticalAlign=middle;resizable=0;points=[];" vertex="1" connectable="0" parent="nUJ4KrY5SfV61IZJ1-Id-18">
          <mxGeometry x="0.0884" relative="1" as="geometry">
            <mxPoint as="offset" />
          </mxGeometry>
        </mxCell>
        <mxCell id="nUJ4KrY5SfV61IZJ1-Id-13" value="Service A&lt;div&gt;(Producer)&lt;/div&gt;" style="rounded=1;whiteSpace=wrap;html=1;fillColor=#cce5ff;strokeColor=#36393d;shadow=1;fontFamily=Inter;" vertex="1" parent="1">
          <mxGeometry x="170" y="540" width="120" height="60" as="geometry" />
        </mxCell>
        <mxCell id="nUJ4KrY5SfV61IZJ1-Id-19" style="edgeStyle=orthogonalEdgeStyle;rounded=0;orthogonalLoop=1;jettySize=auto;html=1;entryX=0.25;entryY=1;entryDx=0;entryDy=0;" edge="1" parent="1" source="nUJ4KrY5SfV61IZJ1-Id-14" target="nUJ4KrY5SfV61IZJ1-Id-17">
          <mxGeometry relative="1" as="geometry">
            <Array as="points">
              <mxPoint x="380" y="720" />
            </Array>
          </mxGeometry>
        </mxCell>
        <mxCell id="nUJ4KrY5SfV61IZJ1-Id-24" value="&amp;nbsp;Push&amp;nbsp;" style="edgeLabel;html=1;align=center;verticalAlign=middle;resizable=0;points=[];" vertex="1" connectable="0" parent="nUJ4KrY5SfV61IZJ1-Id-19">
          <mxGeometry x="-0.0383" relative="1" as="geometry">
            <mxPoint as="offset" />
          </mxGeometry>
        </mxCell>
        <mxCell id="nUJ4KrY5SfV61IZJ1-Id-14" value="Service B&lt;div&gt;(Producer)&lt;/div&gt;" style="rounded=1;whiteSpace=wrap;html=1;fillColor=#cdeb8b;strokeColor=#36393d;shadow=1;fontFamily=Inter;" vertex="1" parent="1">
          <mxGeometry x="170" y="690" width="120" height="60" as="geometry" />
        </mxCell>
        <mxCell id="nUJ4KrY5SfV61IZJ1-Id-15" value="Service C&lt;div&gt;(Consumer)&lt;/div&gt;" style="rounded=1;whiteSpace=wrap;html=1;fillColor=#ffcccc;strokeColor=#36393d;shadow=1;fontFamily=Inter;" vertex="1" parent="1">
          <mxGeometry x="530" y="540" width="120" height="60" as="geometry" />
        </mxCell>
        <mxCell id="nUJ4KrY5SfV61IZJ1-Id-16" value="Service D&lt;div&gt;(Consumer)&lt;/div&gt;" style="rounded=1;whiteSpace=wrap;html=1;fillColor=#ffcc99;strokeColor=#36393d;shadow=1;fontFamily=Inter;" vertex="1" parent="1">
          <mxGeometry x="530" y="690" width="120" height="60" as="geometry" />
        </mxCell>
        <mxCell id="nUJ4KrY5SfV61IZJ1-Id-20" style="edgeStyle=orthogonalEdgeStyle;rounded=0;orthogonalLoop=1;jettySize=auto;html=1;entryX=0;entryY=0.5;entryDx=0;entryDy=0;exitX=0.75;exitY=0;exitDx=0;exitDy=0;" edge="1" parent="1" source="nUJ4KrY5SfV61IZJ1-Id-17" target="nUJ4KrY5SfV61IZJ1-Id-15">
          <mxGeometry relative="1" as="geometry" />
        </mxCell>
        <mxCell id="nUJ4KrY5SfV61IZJ1-Id-25" value="&amp;nbsp;Pull&amp;nbsp;" style="edgeLabel;html=1;align=center;verticalAlign=middle;resizable=0;points=[];" vertex="1" connectable="0" parent="nUJ4KrY5SfV61IZJ1-Id-20">
          <mxGeometry x="-0.0134" relative="1" as="geometry">
            <mxPoint as="offset" />
          </mxGeometry>
        </mxCell>
        <mxCell id="nUJ4KrY5SfV61IZJ1-Id-21" style="edgeStyle=orthogonalEdgeStyle;rounded=0;orthogonalLoop=1;jettySize=auto;html=1;entryX=0;entryY=0.5;entryDx=0;entryDy=0;exitX=0.75;exitY=1;exitDx=0;exitDy=0;" edge="1" parent="1" source="nUJ4KrY5SfV61IZJ1-Id-17" target="nUJ4KrY5SfV61IZJ1-Id-16">
          <mxGeometry relative="1" as="geometry">
            <Array as="points">
              <mxPoint x="440" y="720" />
            </Array>
          </mxGeometry>
        </mxCell>
        <mxCell id="nUJ4KrY5SfV61IZJ1-Id-26" value="&amp;nbsp;Pull&amp;nbsp;" style="edgeLabel;html=1;align=center;verticalAlign=middle;resizable=0;points=[];" vertex="1" connectable="0" parent="nUJ4KrY5SfV61IZJ1-Id-21">
          <mxGeometry x="0.3328" relative="1" as="geometry">
            <mxPoint as="offset" />
          </mxGeometry>
        </mxCell>
        <mxCell id="nUJ4KrY5SfV61IZJ1-Id-17" value="Event Router&lt;div&gt;(Kafka)&lt;/div&gt;" style="rounded=1;whiteSpace=wrap;html=1;fillColor=#eeeeee;strokeColor=#36393d;shadow=1;glass=0;" vertex="1" parent="1">
          <mxGeometry x="350" y="610" width="120" height="60" as="geometry" />
        </mxCell>
        <mxCell id="nUJ4KrY5SfV61IZJ1-Id-22" value="Event-Driven Archtecture" style="text;html=1;align=center;verticalAlign=middle;resizable=0;points=[];autosize=1;strokeColor=none;fillColor=none;fontFamily=Inter;fontStyle=1;fontSize=14;" vertex="1" parent="1">
          <mxGeometry x="315" y="470" width="190" height="30" as="geometry" />
        </mxCell>
      </root>
    </mxGraphModel>
  </diagram>
  <diagram id="pZarhxtP7W6fwbt6XOhd" name="Case Study with Quarkus">
    <mxGraphModel dx="657" dy="488" grid="1" gridSize="10" guides="1" tooltips="1" connect="1" arrows="1" fold="1" page="1" pageScale="1" pageWidth="850" pageHeight="1100" math="0" shadow="0">
      <root>
        <mxCell id="0" />
        <mxCell id="1" parent="0" />
        <mxCell id="9gaD4bHTw_B2vx2BDri4-14" value="" style="rounded=0;whiteSpace=wrap;html=1;shadow=1;dashed=1;fillColor=#eeeeee;strokeColor=#36393d;" vertex="1" parent="1">
          <mxGeometry x="518.52" y="182" width="210" height="330" as="geometry" />
        </mxCell>
        <mxCell id="9gaD4bHTw_B2vx2BDri4-16" style="edgeStyle=orthogonalEdgeStyle;rounded=0;orthogonalLoop=1;jettySize=auto;html=1;entryX=0;entryY=0.5;entryDx=0;entryDy=0;shadow=1;flowAnimation=1;" edge="1" parent="1" source="9gaD4bHTw_B2vx2BDri4-1" target="9gaD4bHTw_B2vx2BDri4-13">
          <mxGeometry relative="1" as="geometry" />
        </mxCell>
        <mxCell id="9gaD4bHTw_B2vx2BDri4-1" value="" style="image;aspect=fixed;html=1;points=[];align=center;fontSize=12;image=img/lib/azure2/other/Azure_Monitor_Dashboard.svg;shadow=1;" vertex="1" parent="1">
          <mxGeometry x="121" y="199.4" width="101.04" height="93.91" as="geometry" />
        </mxCell>
        <mxCell id="9gaD4bHTw_B2vx2BDri4-17" style="edgeStyle=orthogonalEdgeStyle;rounded=0;orthogonalLoop=1;jettySize=auto;html=1;shadow=1;flowAnimation=1;" edge="1" parent="1" source="9gaD4bHTw_B2vx2BDri4-13" target="9gaD4bHTw_B2vx2BDri4-4">
          <mxGeometry relative="1" as="geometry" />
        </mxCell>
        <mxCell id="9gaD4bHTw_B2vx2BDri4-13" value="" style="shape=image;verticalLabelPosition=bottom;labelBackgroundColor=default;verticalAlign=top;aspect=fixed;imageAspect=0;image=https://cdn-icons-png.flaticon.com/512/17704/17704138.png;shadow=1;" vertex="1" parent="1">
          <mxGeometry x="316.52" y="196.4" width="100" height="100" as="geometry" />
        </mxCell>
        <mxCell id="9gaD4bHTw_B2vx2BDri4-19" style="edgeStyle=orthogonalEdgeStyle;rounded=0;orthogonalLoop=1;jettySize=auto;html=1;flowAnimation=1;shadow=1;" edge="1" parent="1" source="9gaD4bHTw_B2vx2BDri4-4" target="9gaD4bHTw_B2vx2BDri4-15">
          <mxGeometry relative="1" as="geometry">
            <Array as="points">
              <mxPoint x="646.52" y="329.4" />
              <mxPoint x="646.52" y="329.4" />
            </Array>
          </mxGeometry>
        </mxCell>
        <mxCell id="9gaD4bHTw_B2vx2BDri4-4" value="" style="shape=image;verticalLabelPosition=bottom;labelBackgroundColor=default;verticalAlign=top;aspect=fixed;imageAspect=0;image=https://quarkus.io/assets/images/brand/quarkus_icon_1024px_default.png;shadow=1;" vertex="1" parent="1">
          <mxGeometry x="576.52" y="199.4" width="94" height="94" as="geometry" />
        </mxCell>
        <mxCell id="9gaD4bHTw_B2vx2BDri4-20" style="edgeStyle=orthogonalEdgeStyle;rounded=0;orthogonalLoop=1;jettySize=auto;html=1;shadow=1;flowAnimation=1;" edge="1" parent="1" source="9gaD4bHTw_B2vx2BDri4-15" target="9gaD4bHTw_B2vx2BDri4-4">
          <mxGeometry relative="1" as="geometry">
            <Array as="points">
              <mxPoint x="606.52" y="339.4" />
              <mxPoint x="606.52" y="339.4" />
            </Array>
          </mxGeometry>
        </mxCell>
        <mxCell id="9gaD4bHTw_B2vx2BDri4-15" value="" style="image;aspect=fixed;html=1;points=[];align=center;fontSize=12;image=img/lib/azure2/databases/Azure_Database_MariaDB_Server.svg;shadow=1;" vertex="1" parent="1">
          <mxGeometry x="580" y="368.37" width="86.27" height="115.03" as="geometry" />
        </mxCell>
        <mxCell id="9gaD4bHTw_B2vx2BDri4-21" value="HTTP&lt;div&gt;POST&lt;/div&gt;" style="text;html=1;align=center;verticalAlign=middle;resizable=0;points=[];autosize=1;strokeColor=none;fillColor=none;fontFamily=Inter;textShadow=1;" vertex="1" parent="1">
          <mxGeometry x="336.52" y="296.4" width="60" height="40" as="geometry" />
        </mxCell>
        <mxCell id="9gaD4bHTw_B2vx2BDri4-22" value="WRK" style="text;html=1;align=center;verticalAlign=middle;resizable=0;points=[];autosize=1;strokeColor=none;fillColor=none;fontFamily=Inter;textShadow=1;" vertex="1" parent="1">
          <mxGeometry x="146.51999999999998" y="312" width="50" height="30" as="geometry" />
        </mxCell>
        <mxCell id="9gaD4bHTw_B2vx2BDri4-23" value="Case Study: CRUD workload" style="text;html=1;align=center;verticalAlign=middle;resizable=0;points=[];autosize=1;strokeColor=none;fillColor=none;fontStyle=1;fontSize=18;fontFamily=Inter;shadow=1;textShadow=1;" vertex="1" parent="1">
          <mxGeometry x="271" y="60" width="270" height="40" as="geometry" />
        </mxCell>
        <mxCell id="9gaD4bHTw_B2vx2BDri4-24" value="Quarkus Application" style="text;html=1;align=center;verticalAlign=middle;resizable=0;points=[];autosize=1;strokeColor=none;fillColor=none;fontFamily=Inter;textShadow=1;" vertex="1" parent="1">
          <mxGeometry x="551.52" y="140" width="140" height="30" as="geometry" />
        </mxCell>
      </root>
    </mxGraphModel>
  </diagram>
</mxfile>
